<svg xmlns="http://www.w3.org/2000/svg" xmlns:xlink="http://www.w3.org/1999/xlink" width="339pt" height="1781pt" viewBox="0.00 0.00 339.00 1781.00">
<g id="graph0" class="graph" transform="scale(1 1) rotate(0) translate(4 1777)">
<title>alpha_classic_net_1783244569.7984304</title>
<polygon fill="white" stroke="none" points="-4,4 -4,-1777 334.93,-1777 334.93,4 -4,4"/>
<!-- 2068208772400 -->
<g id="node1" class="node">
<title>2068208772400</title>
<polygon fill="white" stroke="black" points="330.93,-144 186.31,-144 186.31,-108 330.93,-108 330.93,-144"/>
<text xml:space="preserve" text-anchor="middle" x="258.62" y="-122.4" font-family="Times,serif" font-size="12.00">Webhook Trends Scrapper</text>
</g>
<!-- 2068208774640 -->
<g id="node2" class="node">
<title>2068208774640</title>
<polygon fill="white" stroke="black" points="289.95,-90 227.3,-90 227.3,-54 289.95,-54 289.95,-90"/>
<text xml:space="preserve" text-anchor="middle" x="258.62" y="-68.4" font-family="Times,serif" font-size="12.00">Webhook</text>
</g>
<!-- 2068208775920 -->
<g id="node3" class="node">
<title>2068208775920</title>
<polygon fill="white" stroke="black" points="330.6,-36 186.65,-36 186.65,0 330.6,0 330.6,-36"/>
<text xml:space="preserve" text-anchor="middle" x="258.62" y="-14.4" font-family="Times,serif" font-size="12.00">Webhook Events Scrapper</text>
</g>
<!-- 2068209351184 -->
<g id="node4" class="node">
<title>2068209351184</title>
<polygon fill="white" stroke="black" points="134.64,-153 15.68,-153 15.68,-117 134.64,-117 134.64,-153"/>
<text xml:space="preserve" text-anchor="middle" x="75.16" y="-131.4" font-family="Times,serif" font-size="12.00">Execute a SQL query</text>
</g>
<!-- 2068209292048 -->
<g id="node5" class="node">
<title>2068209292048</title>
<polygon fill="white" stroke="black" points="137.64,-207 12.68,-207 12.68,-171 137.64,-171 137.64,-207"/>
<text xml:space="preserve" text-anchor="middle" x="75.16" y="-185.4" font-family="Times,serif" font-size="12.00">Execute a SQL query1</text>
</g>
<!-- 2068208462608 -->
<g id="node6" class="node">
<title>2068208462608</title>
<polygon fill="white" stroke="black" points="127.15,-423 23.17,-423 23.17,-387 127.15,-387 127.15,-423"/>
<text xml:space="preserve" text-anchor="middle" x="75.16" y="-401.4" font-family="Times,serif" font-size="12.00">Loop Over Items1</text>
</g>
<!-- 2068209290768 -->
<g id="node36" class="node">
<title>2068209290768</title>
<ellipse fill="white" stroke="black" cx="258.62" cy="-324" rx="27" ry="27"/>
<ellipse fill="none" stroke="black" cx="258.62" cy="-324" rx="31" ry="31"/>
<text xml:space="preserve" text-anchor="start" x="246.62" y="-314.4" font-family="Times,serif" font-size="32.00">■</text>
</g>
<!-- 2068208462608&#45;&gt;2068209290768 -->
<g id="edge4" class="edge">
<title>2068208462608-&gt;2068209290768</title>
<path fill="none" stroke="black" d="M127.53,-387.18C135.22,-384.26 143.02,-381.15 150.31,-378 174.28,-367.65 200.47,-354.51 220.97,-343.78"/>
<polygon fill="black" stroke="black" points="222.59,-346.89 229.8,-339.13 219.32,-340.7 222.59,-346.89"/>
</g>
<!-- 2068207057040 -->
<g id="node7" class="node">
<title>2068207057040</title>
<polygon fill="white" stroke="black" points="108,-477 42.32,-477 42.32,-441 108,-441 108,-477"/>
<text xml:space="preserve" text-anchor="middle" x="75.16" y="-455.4" font-family="Times,serif" font-size="12.00">Split Out1</text>
</g>
<!-- 2068208774800 -->
<g id="node8" class="node">
<title>2068208774800</title>
<polygon fill="white" stroke="black" points="150.31,-531 0,-531 0,-495 150.31,-495 150.31,-531"/>
<text xml:space="preserve" text-anchor="middle" x="75.16" y="-509.4" font-family="Times,serif" font-size="12.00">Google Gemini Chat Model</text>
</g>
<!-- 2068208775440 -->
<g id="node9" class="node">
<title>2068208775440</title>
<polygon fill="white" stroke="black" points="102.16,-585 48.16,-585 48.16,-549 102.16,-549 102.16,-585"/>
<text xml:space="preserve" text-anchor="middle" x="75.16" y="-563.4" font-family="Times,serif" font-size="12.00">Email1</text>
</g>
<!-- 2068208776080 -->
<g id="node10" class="node">
<title>2068208776080</title>
<polygon fill="white" stroke="black" points="142.64,-639 7.68,-639 7.68,-603 142.64,-603 142.64,-639"/>
<text xml:space="preserve" text-anchor="middle" x="75.16" y="-617.4" font-family="Times,serif" font-size="12.00">Search files and folders1</text>
</g>
<!-- 2068209278256 -->
<g id="node11" class="node">
<title>2068209278256</title>
<polygon fill="white" stroke="black" points="134.64,-693 15.67,-693 15.67,-657 134.64,-657 134.64,-693"/>
<text xml:space="preserve" text-anchor="middle" x="75.16" y="-671.4" font-family="Times,serif" font-size="12.00">Send a text message2</text>
</g>
<!-- 2068208756912 -->
<g id="node12" class="node">
<title>2068208756912</title>
<polygon fill="white" stroke="black" points="134.64,-747 15.67,-747 15.67,-711 134.64,-711 134.64,-747"/>
<text xml:space="preserve" text-anchor="middle" x="75.16" y="-725.4" font-family="Times,serif" font-size="12.00">Send a text message3</text>
</g>
<!-- 2068209424560 -->
<g id="node13" class="node">
<title>2068209424560</title>
<polygon fill="white" stroke="black" points="142.64,-801 7.68,-801 7.68,-765 142.64,-765 142.64,-801"/>
<text xml:space="preserve" text-anchor="middle" x="75.16" y="-779.4" font-family="Times,serif" font-size="12.00">Search files and folders2</text>
</g>
<!-- 2068208774320 -->
<g id="node14" class="node">
<title>2068208774320</title>
<polygon fill="white" stroke="black" points="134.64,-855 15.67,-855 15.67,-819 134.64,-819 134.64,-855"/>
<text xml:space="preserve" text-anchor="middle" x="75.16" y="-833.4" font-family="Times,serif" font-size="12.00">Send a text message5</text>
</g>
<!-- 2068208774960 -->
<g id="node15" class="node">
<title>2068208774960</title>
<polygon fill="white" stroke="black" points="106.14,-909 44.17,-909 44.17,-873 106.14,-873 106.14,-909"/>
<text xml:space="preserve" text-anchor="middle" x="75.16" y="-887.4" font-family="Times,serif" font-size="12.00">Telegram</text>
</g>
<!-- 2068208775600 -->
<g id="node16" class="node">
<title>2068208775600</title>
<polygon fill="white" stroke="black" points="134.64,-963 15.67,-963 15.67,-927 134.64,-927 134.64,-963"/>
<text xml:space="preserve" text-anchor="middle" x="75.16" y="-941.4" font-family="Times,serif" font-size="12.00">Send a text message1</text>
</g>
<!-- 2068208776240 -->
<g id="node17" class="node">
<title>2068208776240</title>
<polygon fill="white" stroke="black" points="134.64,-1017 15.67,-1017 15.67,-981 134.64,-981 134.64,-1017"/>
<text xml:space="preserve" text-anchor="middle" x="75.16" y="-995.4" font-family="Times,serif" font-size="12.00">Send a text message4</text>
</g>
<!-- 2068208776400 -->
<g id="node18" class="node">
<title>2068208776400</title>
<polygon fill="white" stroke="black" points="117.65,-1071 32.67,-1071 32.67,-1035 117.65,-1035 117.65,-1071"/>
<text xml:space="preserve" text-anchor="middle" x="75.16" y="-1049.4" font-family="Times,serif" font-size="12.00">Download file</text>
</g>
<!-- 2068207056848 -->
<g id="node19" class="node">
<title>2068207056848</title>
<polygon fill="white" stroke="black" points="124.15,-1125 26.17,-1125 26.17,-1089 124.15,-1089 124.15,-1125"/>
<text xml:space="preserve" text-anchor="middle" x="75.16" y="-1103.4" font-family="Times,serif" font-size="12.00">Send a message1</text>
</g>
<!-- 2068209289808 -->
<g id="node20" class="node">
<title>2068209289808</title>
<polygon fill="white" stroke="black" points="134.64,-1179 15.67,-1179 15.67,-1143 134.64,-1143 134.64,-1179"/>
<text xml:space="preserve" text-anchor="middle" x="75.16" y="-1157.4" font-family="Times,serif" font-size="12.00">Send a text message7</text>
</g>
<!-- 2068208758736 -->
<g id="node21" class="node">
<title>2068208758736</title>
<polygon fill="white" stroke="black" points="131.64,-1233 18.67,-1233 18.67,-1197 131.64,-1197 131.64,-1233"/>
<text xml:space="preserve" text-anchor="middle" x="75.16" y="-1211.4" font-family="Times,serif" font-size="12.00">Send a text message</text>
</g>
<!-- 2068209377872 -->
<g id="node22" class="node">
<title>2068209377872</title>
<polygon fill="white" stroke="black" points="134.64,-1287 15.67,-1287 15.67,-1251 134.64,-1251 134.64,-1287"/>
<text xml:space="preserve" text-anchor="middle" x="75.16" y="-1265.4" font-family="Times,serif" font-size="12.00">Send a text message8</text>
</g>
<!-- 2068208022608 -->
<g id="node23" class="node">
<title>2068208022608</title>
<polygon fill="white" stroke="black" points="124.15,-369 26.17,-369 26.17,-333 124.15,-333 124.15,-369"/>
<text xml:space="preserve" text-anchor="middle" x="75.16" y="-347.4" font-family="Times,serif" font-size="12.00">Loop Over Items</text>
</g>
<!-- 2068208022608&#45;&gt;2068209290768 -->
<g id="edge6" class="edge">
<title>2068208022608-&gt;2068209290768</title>
<path fill="none" stroke="black" d="M124.31,-343.84C152.98,-339.57 188.97,-334.21 216.34,-330.14"/>
<polygon fill="black" stroke="black" points="216.61,-333.64 225.99,-328.71 215.58,-326.72 216.61,-333.64"/>
</g>
<!-- 2068208019792 -->
<g id="node24" class="node">
<title>2068208019792</title>
<polygon fill="white" stroke="black" points="120.15,-1341 30.16,-1341 30.16,-1305 120.15,-1305 120.15,-1341"/>
<text xml:space="preserve" text-anchor="middle" x="75.16" y="-1319.4" font-family="Times,serif" font-size="12.00">Look Up Event</text>
</g>
<!-- 2068207116496 -->
<g id="node25" class="node">
<title>2068207116496</title>
<polygon fill="white" stroke="black" points="106.31,-1395 44,-1395 44,-1359 106.31,-1359 106.31,-1395"/>
<text xml:space="preserve" text-anchor="middle" x="75.16" y="-1373.4" font-family="Times,serif" font-size="12.00">Share file</text>
</g>
<!-- 2068208774480 -->
<g id="node26" class="node">
<title>2068208774480</title>
<polygon fill="white" stroke="black" points="134.64,-1449 15.67,-1449 15.67,-1413 134.64,-1413 134.64,-1449"/>
<text xml:space="preserve" text-anchor="middle" x="75.16" y="-1427.4" font-family="Times,serif" font-size="12.00">Send a text message6</text>
</g>
<!-- 2068208775120 -->
<g id="node27" class="node">
<title>2068208775120</title>
<polygon fill="white" stroke="black" points="121.15,-1503 29.17,-1503 29.17,-1467 121.15,-1467 121.15,-1503"/>
<text xml:space="preserve" text-anchor="middle" x="75.16" y="-1481.4" font-family="Times,serif" font-size="12.00">Send a message</text>
</g>
<!-- 2068208775760 -->
<g id="node28" class="node">
<title>2068208775760</title>
<polygon fill="white" stroke="black" points="139.64,-1557 10.68,-1557 10.68,-1521 139.64,-1521 139.64,-1557"/>
<text xml:space="preserve" text-anchor="middle" x="75.16" y="-1535.4" font-family="Times,serif" font-size="12.00">Search files and folders</text>
</g>
<!-- 2064122566752 -->
<g id="node29" class="node">
<title>2064122566752</title>
<polygon fill="white" stroke="black" points="113.98,-315 36.34,-315 36.34,-279 113.98,-279 113.98,-315"/>
<text xml:space="preserve" text-anchor="middle" x="75.16" y="-293.4" font-family="Times,serif" font-size="12.00">Trend Query</text>
</g>
<!-- 2064122566752&#45;&gt;2068209290768 -->
<g id="edge5" class="edge">
<title>2064122566752-&gt;2068209290768</title>
<path fill="none" stroke="black" d="M114.2,-302.66C144.15,-307.12 185.82,-313.32 216.53,-317.89"/>
<polygon fill="black" stroke="black" points="215.82,-321.32 226.22,-319.33 216.85,-314.39 215.82,-321.32"/>
</g>
<!-- 2064122567280 -->
<g id="node30" class="node">
<title>2064122567280</title>
<polygon fill="white" stroke="black" points="102.16,-1611 48.16,-1611 48.16,-1575 102.16,-1575 102.16,-1611"/>
<text xml:space="preserve" text-anchor="middle" x="75.16" y="-1589.4" font-family="Times,serif" font-size="12.00">Email</text>
</g>
<!-- 2068209350512 -->
<g id="node31" class="node">
<title>2068209350512</title>
<polygon fill="white" stroke="black" points="128.47,-1665 21.84,-1665 21.84,-1629 128.47,-1629 128.47,-1665"/>
<text xml:space="preserve" text-anchor="middle" x="75.16" y="-1643.4" font-family="Times,serif" font-size="12.00">Email or Telegram</text>
</g>
<!-- 2068209423600 -->
<g id="node32" class="node">
<title>2068209423600</title>
<polygon fill="white" stroke="black" points="105.65,-261 44.66,-261 44.66,-225 105.65,-225 105.65,-261"/>
<text xml:space="preserve" text-anchor="middle" x="75.16" y="-239.4" font-family="Times,serif" font-size="12.00">AI Agent</text>
</g>
<!-- 2068209423600&#45;&gt;2068209290768 -->
<g id="edge7" class="edge">
<title>2068209423600-&gt;2068209290768</title>
<path fill="none" stroke="black" d="M106.06,-252.99C119.7,-257.78 135.98,-263.81 150.31,-270 174.28,-280.35 200.47,-293.49 220.97,-304.22"/>
<polygon fill="black" stroke="black" points="219.32,-307.3 229.8,-308.87 222.59,-301.11 219.32,-307.3"/>
</g>
<!-- 2068209378416 -->
<g id="node33" class="node">
<title>2068209378416</title>
<polygon fill="white" stroke="black" points="115.98,-1719 34.33,-1719 34.33,-1683 115.98,-1683 115.98,-1719"/>
<text xml:space="preserve" text-anchor="middle" x="75.16" y="-1697.4" font-family="Times,serif" font-size="12.00">Events Query</text>
</g>
<!-- 2068208775280 -->
<g id="node34" class="node">
<title>2068208775280</title>
<polygon fill="white" stroke="black" points="105,-1773 45.32,-1773 45.32,-1737 105,-1737 105,-1773"/>
<text xml:space="preserve" text-anchor="middle" x="75.16" y="-1751.4" font-family="Times,serif" font-size="12.00">Split Out</text>
</g>
<!-- 2068209278592 -->
<g id="node35" class="node">
<title>2068209278592</title>
<ellipse fill="white" stroke="black" cx="75.16" cy="-72" rx="27" ry="27"/>
<text xml:space="preserve" text-anchor="start" x="62.41" y="-61.8" font-family="Times,serif" font-size="34.00">●</text>
</g>
<!-- 2068209278592&#45;&gt;2068208772400 -->
<g id="edge3" class="edge">
<title>2068209278592-&gt;2068208772400</title>
<path fill="none" stroke="black" d="M101.39,-79.51C122.99,-85.94 155.19,-95.52 184.75,-104.31"/>
<polygon fill="black" stroke="black" points="183.47,-107.58 194.05,-107.08 185.46,-100.87 183.47,-107.58"/>
</g>
<!-- 2068209278592&#45;&gt;2068208774640 -->
<g id="edge2" class="edge">
<title>2068209278592-&gt;2068208774640</title>
<path fill="none" stroke="black" d="M102.54,-72C132.22,-72 180.81,-72 215.7,-72"/>
<polygon fill="black" stroke="black" points="215.44,-75.5 225.44,-72 215.44,-68.5 215.44,-75.5"/>
</g>
<!-- 2068209278592&#45;&gt;2068208775920 -->
<g id="edge1" class="edge">
<title>2068209278592-&gt;2068208775920</title>
<path fill="none" stroke="black" d="M101.39,-64.49C122.99,-58.06 155.19,-48.48 184.75,-39.69"/>
<polygon fill="black" stroke="black" points="185.46,-43.13 194.05,-36.92 183.47,-36.42 185.46,-43.13"/>
</g>
</g>
</svg>